# xmcd
#
# Track frame offsets:
#	150
#	14949
#	30662
#	50085
#	64544
#	82190
#	99431
#	120212
#	131746
#	146009
#	157164
#	173648
#
# Disc length: 2564 seconds
#
# Revision: 0
# Processed by: cddbd v1.5.1PL2 Copyright (c) Steve Scherf et al.
# Submitted via: dBpowerAMP V4.0
#
DISCID=a70a020c
DTITLE=Ken Willaimson - SUPPER TIME
DYEAR=2004
DGENRE=Christian
TTITLE0=01This Ole House
TTITLE1=02It Is No Secret
TTITLE2=03Higher Than I've Ever Been
TTITLE3=04Supper Time
TTITLE4=05Ain't Got Time For You Devil
TTITLE5=06No One Ever Cared For Me Like Jesus
TTITLE6=07 I Know Who Holds Tomorrow
TTITLE7=08Power In The Blood
TTITLE8=09Take My Hand Precious Lord 
TTITLE9=10Lets All Go Down To The River
TTITLE10=11 Lifes Railway To Heaven
TTITLE11=12When I Take My Vacation In Heaven
EXTD=
EXTT0=
EXTT1=
EXTT2=
EXTT3=
EXTT4=
EXTT5=
EXTT6=
EXTT7=
EXTT8=
EXTT9=
EXTT10=
EXTT11=
PLAYORDER=
